HIERARCHY
ROOT pelvis
{
  OFFSET 0 100 0
  CHANNELS 6 Xposition Yposition Zposition Zrotation Xrotation Yrotation
  JOINT pelvis_right_femur
  {
    OFFSET -10.78128 -3.44521 -0.5502486
    CHANNELS 3 Zrotation Xrotation Yrotation
    JOINT right_femur_tibia
    {
      OFFSET -0.8047443 -44.0398 -0.1307829
      CHANNELS 3 Zrotation Xrotation Yrotation
      JOINT right_tibia_foot
      {
        OFFSET 3.006224 -47.83518 -5
        CHANNELS 3 Zrotation Xrotation Yrotation
        End Site
        {
          OFFSET 0 -5 15
        }
      }
    }
  }
  JOINT pelvis_left_femur
  {
    OFFSET 10.78128 -3.44521 -0.5502486
    CHANNELS 3 Zrotation Xrotation Yrotation
    JOINT left_femur_tibia
    {
      OFFSET 0.8047443 -44.0398 -0.1307829
      CHANNELS 3 Zrotation Xrotation Yrotation
      JOINT left_tibia_foot
      {
        OFFSET -4.370144 -48.10324 -4.275266
        CHANNELS 3 Zrotation Xrotation Yrotation
        End Site
        {
          OFFSET 0 -5 15
        }
      }
    }
  }
  JOINT pelvis_spine1
  {
    OFFSET 0 6.468898 -3.129235
    CHANNELS 3 Zrotation Xrotation Yrotation
    JOINT spine1
    {
      OFFSET 0 23.15396 4.99043
      CHANNELS 3 Zrotation Xrotation Yrotation
      JOINT spine2
      {
        OFFSET 0 20.79997 -5.064912
        CHANNELS 3 Zrotation Xrotation Yrotation
        JOINT neck
        {
          OFFSET 0 14.38658 9.616178
          CHANNELS 3 Zrotation Xrotation Yrotation
          End Site
          {
            OFFSET 0 20 0
          }
        }
      }
      JOINT right_manubrium
      {
        OFFSET -5.722621 16.35077 3.967754
        CHANNELS 3 Zrotation Xrotation Yrotation
        JOINT right_clavicle
        {
          OFFSET -13.16364 1.694482 -4.693211
          CHANNELS 3 Zrotation Xrotation Yrotation
          JOINT right_humerus
          {
            OFFSET -28.5034 -0.3100689 -2.792744
            CHANNELS 3 Zrotation Xrotation Yrotation
            JOINT right_radius
            {
              OFFSET -25.15693 0.02248979 -1.271978
              CHANNELS 3 Zrotation Xrotation Yrotation
              End Site
              {
                OFFSET -15 0 0
              }
            }
          }
        }
      }
      JOINT left_manubrium
      {
        OFFSET 5.722621 16.35077 3.967754
        CHANNELS 3 Zrotation Xrotation Yrotation
        JOINT left_clavicle
        {
          OFFSET 13.16364 1.694482 -4.693211
          CHANNELS 3 Zrotation Xrotation Yrotation
          JOINT left_humerus
          {
            OFFSET 29.39168 -1.063119 -2.237045
            CHANNELS 3 Zrotation Xrotation Yrotation
            JOINT left_radius
            {
              OFFSET 24.59957 -0.9528479 0.9047498
              CHANNELS 3 Zrotation Xrotation Yrotation
              End Site
              {
                OFFSET 15 -0 -0
              }
            }
          }
        }
      }
    }
  }
}
MOTION
Frames: 11
Frame Time: 0.0416666666667
0 103.5113 0 0.4434099 -3.632434 0.1323312 3.523837 -16.41386 3.372356 -1.740972e-12 25.2276 7.721179e-13 -4.543825 -5.368471 -4.044342 -5.02045 7.333207 -12.78753 1.868189e-12 21.70143 -9.285597e-13 1.598048 -14.15783 17.90164 -2.083702 -0.9135816 3.840576 1.542892 9.963961 -6.850538 1.697454 21.94648 6.256713 2.869865 -20.57131 7.95717 3.028531 -17.22104 10.96981 87.13344 29.5306 -18.2683 -1.456458e-13 6.05061e-14 11.63635 -15.64219 11.19726 8.226047 5.38383 -20.28366 -4.151734 -86.69571 22.83645 14.24732 9.737235e-14 -1.596729e-14 -19.89743 6.611946 12.36183 5.852139
0.06904032 103.499 4.702516 0.4302919 -3.498771 0.2600804 3.581179 -17.99931 3.363598 -2.078296e-12 25.26044 9.222218e-13 -4.625047 -5.113512 -4.191863 -5.154937 8.76203 -13.05363 2.225964e-12 21.65591 -1.112083e-12 1.674235 -14.68415 17.84043 -2.119815 -0.9448235 3.672676 1.647287 9.957523 -7.056341 1.681111 22.03003 6.349945 2.917168 -20.76692 8.052565 3.115902 -17.03958 10.99214 87.92538 29.6941 -19.08995 -1.698785e-13 7.357525e-14 11.18678 -15.41702 11.20633 8.025846 5.499753 -20.56443 -4.195588 -86.81774 22.99074 13.79331 1.160119e-13 -2.003684e-14 -20.5645 6.771881 12.51558 5.730646
0.1062879 103.4868 9.376331 0.4143321 -3.339173 0.415941 3.636662 -19.75214 3.346336 -2.454381e-12 25.23787 1.08865e-12 -4.704804 -4.81295 -4.348003 -5.29072 10.35815 -13.32342 2.624462e-12 21.55315 -1.315364e-12 1.750218 -15.24642 17.72814 -2.155878 -0.9776831 3.473905 1.759993 9.926564 -7.272068 1.661363 22.07233 6.44039 2.960146 -20.93977 8.139387 3.203049 -16.79465 10.98896 88.58851 29.84812 -19.92278 -1.967806e-13 8.847673e-14 10.6513 -15.12323 11.19184 7.776382 5.619144 -20.83336 -4.236698 -86.73306 23.14681 13.20746 1.367852e-13 -2.479707e-14 -21.27115 6.938632 12.65894 5.58055
0.1106028 103.474 14.01291 0.3966057 -3.162783 0.6020356 3.690812 -21.61101 3.324363 -2.854745e-12 25.17844 1.264895e-12 -4.782897 -4.482867 -4.509187 -5.424084 12.06083 -13.59461 3.048239e-12 21.41256 -1.530306e-12 1.82497 -15.83105 17.58237 -2.191857 -1.011459 3.255175 1.877735 9.879181 -7.493639 1.639461 22.08699 6.528668 3.000138 -21.09691 8.220242 3.28985 -16.50823 10.96863 89.1655 29.99413 -20.76109 -2.252987e-13 1.047033e-13 10.06023 -14.78481 11.16078 7.495039 5.740486 -21.09359 -4.275677 -86.51052 23.30147 12.53429 1.58878e-13 -3.01261e-14 -22.00195 7.109606 12.7947 5.411707
0.08219541 103.4605 18.60007 0.3771416 -2.971443 0.8192918 3.737033 -23.49979 3.293758 -3.263816e-12 25.05774 1.443074e-12 -4.851795 -4.128395 -4.665848 -5.546864 13.80756 -13.846 3.480876e-12 21.21599 -1.747691e-12 1.891147 -16.4052 17.38808 -2.224483 -1.044051 3.019466 1.994332 9.806631 -7.706516 1.615728 22.05061 6.605306 3.030896 -21.21218 8.283056 3.368747 -16.17191 10.91943 89.53265 30.12291 -21.53417 -2.543299e-13 1.217532e-13 9.42028 -14.39545 11.10298 7.180836 5.854851 -21.31548 -4.307932 -86.05876 23.43764 11.76123 1.814839e-13 -3.582822e-14 -22.71289 7.272952 12.90526 5.22419
0.02632876 103.445 23.13379 0.3590877 -2.787558 1.065659 3.772695 -25.2285 3.259734 -3.639329e-12 24.90415 1.604755e-12 -4.907219 -3.79033 -4.804118 -5.649718 15.41811 -14.05915 3.87774e-12 20.99767 -1.945102e-12 1.943967 -16.91659 17.17704 -2.251557 -1.072633 2.794108 2.098741 9.722746 -7.892495 1.593035 21.98063 6.66606 3.051894 -21.28595 8.32665 3.434571 -15.83174 10.85399 89.7121 30.2293 -22.18547 -2.808936e-13 1.378382e-13 8.806399 -14.00684 11.03054 6.873333 5.953154 -21.48814 -4.33224 -85.48382 23.54308 10.98858 2.022734e-13 -4.128832e-14 -23.34098 7.415026 12.98677 5.041203
-0.04917034 103.4269 27.61881 0.3445685 -2.626164 1.337354 3.800898 -26.71531 3.228814 -3.962188e-12 24.75678 1.74258e-12 -4.95184 -3.49471 -4.921098 -5.732849 16.80749 -14.23669 4.218719e-12 20.7963 -2.113373e-12 1.985749 -17.35156 16.9838 -2.273907 -1.096733 2.596875 2.187567 9.64429 -8.049214 1.573232 21.90745 6.714951 3.067421 -21.33815 8.359224 3.489159 -15.52776 10.79041 89.81231 30.31695 -22.72633 -3.036624e-13 1.519742e-13 8.268455 -13.66149 10.96032 6.602142 6.035461 -21.62588 -4.35121 -84.93214 23.62289 10.29971 2.201578e-13 -4.61628e-14 -23.87317 7.534697 13.04973 4.879732
-0.1321482 103.4048 32.07245 0.3373895 -2.510394 1.628089 3.825874 -27.82214 3.21092 -4.201199e-12 24.67087 1.844891e-12 -4.988422 -3.282032 -5.010616 -5.794276 17.83537 -14.37841 4.470887e-12 20.66759 -2.237798e-12 2.019482 -17.68348 16.85867 -2.292209 -1.115248 2.455344 2.254685 9.595192 -8.170594 1.559093 21.8732 6.756492 3.083047 -21.3945 8.391227 3.533553 -15.31939 10.75405 89.97728 30.38526 -23.16177 -3.204536e-13 1.62528e-13 7.883538 -13.42261 10.91699 6.411698 6.100272 -21.74526 -4.367853 -84.61032 23.68786 9.820703 2.333384e-13 -4.990147e-14 -24.28183 7.628269 13.10703 4.765484
-0.2051187 103.3771 36.52165 0.342151 -2.464601 1.928212 3.847035 -28.35433 3.212766 -4.314072e-12 24.68345 1.894874e-12 -5.014382 -3.196588 -5.059468 -5.827267 18.31502 -14.46771 4.589706e-12 20.6537 -2.297687e-12 2.043523 -17.86108 16.84077 -2.304662 -1.125542 2.399293 2.289526 9.592923 -8.239826 1.55354 21.90252 6.788183 3.099749 -21.4612 8.424157 3.562971 -15.25969 10.76159 90.25811 30.42524 -23.44396 -3.283282e-13 1.673891e-13 7.733648 -13.34839 10.91843 6.345371 6.139418 -21.84076 -4.381782 -84.65681 23.73942 9.669505 2.394429e-13 -5.174108e-14 -24.50655 7.683148 13.15855 4.724217
-0.2488597 103.3434 40.99015 0.3605364 -2.493751 2.226263 3.856488 -28.20211 3.229627 -4.278449e-12 24.77198 1.882165e-12 -5.021481 -3.249816 -5.055527 -5.825191 18.15287 -14.47817 4.551838e-12 20.73973 -2.281055e-12 2.050434 -17.841 16.91808 -2.307314 -1.125008 2.435848 2.284026 9.630143 -8.238657 1.55723 21.97244 6.799166 3.110676 -21.50984 8.44473 3.568344 -15.34598 10.80232 90.52142 30.42658 -23.48744 -3.257759e-13 1.65563e-13 7.836687 -13.43903 10.95651 6.407434 6.141862 -21.87858 -4.388018 -84.98773 23.7601 9.848633 2.373187e-13 -5.122698e-14 -24.49056 7.684252 13.18493 4.759462
-0.2394166 103.3023 45.51128 0.3974446 -2.620668 2.508084 3.854179 -27.19265 3.268844 -4.055613e-12 24.97595 1.790556e-12 -5.008032 -3.483085 -4.987668 -5.780663 17.18134 -14.39791 4.316342e-12 20.969 -2.167917e-12 2.038271 -17.58017 17.13038 -2.299081 -1.111439 2.592917 2.228876 9.724865 -8.153337 1.573002 22.11046 6.78859 3.117796 -21.55078 8.456407 3.546983 -15.63039 10.89412 90.83874 30.38425 -23.2596 -3.100577e-13 1.553319e-13 8.269782 -13.75179 11.0482 6.640202 6.101343 -21.85848 -4.386913 -85.75101 23.74478 10.4705 2.247965e-13 -4.779304e-14 -24.18369 7.621657 13.1888 4.895762
